<svg fill="#9ab8c7" xmlns="http://www.w3.org/2000/svg" xmlns:xlink="http://www.w3.org/1999/xlink" version="1.1" x="0px" y="0px" viewBox="0 0 512 640" enable-background="new 0 0 512 512" xml:space="preserve"><g><path d="M75.7,2v508h360.5V2H75.7z M419.9,493.6H92.1V18.4h327.7V493.6z"/><path d="M387.1,51.2H124.9v114.7h262.2V51.2z M370.7,149.5H141.3V67.5h229.4V149.5z"/><path d="M190.5,198.6h-65.5v65.5h65.5V198.6z M174.1,247.8h-32.8V215h32.8V247.8z"/><path d="M223.2,264.2h65.5v-65.5h-65.5V264.2z M239.6,215h32.8v32.8h-32.8V215z"/><path d="M321.5,264.2h65.5v-65.5h-65.5V264.2z M337.9,215h32.8v32.8h-32.8V215z"/><path d="M190.5,297h-65.5v65.5h65.5V297z M174.1,346.1h-32.8v-32.8h32.8V346.1z"/><path d="M223.2,362.5h65.5V297h-65.5V362.5z M239.6,313.4h32.8v32.8h-32.8V313.4z"/><path d="M321.5,460.8h65.5V297h-65.5V460.8z M337.9,313.4h32.8v131.1h-32.8V313.4z"/><path d="M288.8,395.3H124.9v65.5h163.9V395.3z M272.4,444.5H141.3v-32.8h131.1V444.5z"/></g></svg>
