<svg xmlns="http://www.w3.org/2000/svg" xmlns:xlink="http://www.w3.org/1999/xlink" viewBox="0 0 100 125" version="1.1" x="0px" y="0px"><title>emotion_004-smile-face-expression-emoji</title><desc>Created with Sketch.</desc><g stroke="none" stroke-width="1" fill="none" fill-rule="evenodd"><g transform="translate(-600.000000, -150.000000)"><g transform="translate(606.000000, 156.000000)" fill="#ffffff"><g><path d="M18,3 L70,3 C78.5108832,3 85,9.48685873 85,18 L85,70 C85,78.5108832 78.5131413,85 70,85 L18,85 C9.48911679,85 3,78.5131413 3,70 L3,18 C3,9.48911679 9.48685873,3 18,3 Z M0,70 C0,80.1702293 7.83249623,88 18,88 L70,88 C80.1702293,88 88,80.1675038 88,70 L88,18 C88,7.82977071 80.1675038,0 70,0 L18,0 C7.82977071,0 0,7.83249623 0,18 L0,70 Z"/></g><path d="M64.7812684,60.1409851 C59.6835187,65.7112232 52.1413555,69 44,69 C35.8586445,69 28.3164813,65.7112232 23.2187316,60.1409851 C22.3774224,59.2216985 20.9493133,60.3614335 21.6590929,61.3856902 C26.655349,68.5956018 34.9498037,73 44,73 C53.0501963,73 61.344651,68.5956018 66.3409071,61.3856902 C67.0506867,60.3614335 65.6225776,59.2216985 64.7812684,60.1409851 Z"/><circle cx="22.5" cy="42.5" r="6.5"/><circle cx="65.5" cy="42.5" r="6.5"/></g></g></g></svg>
